<svg viewBox="0 0 37 30" xmlns="http://www.w3.org/2000/svg"><g transform="translate(1 1)" fill-rule="nonzero" fill="none"><path d="M4.527 21.39A11.978 11.978 0 0 1 0 12h10l2 3h22c0 4.97-3 6.39-3 6.39" stroke="currentColor" stroke-width="2"/><path stroke="currentColor" stroke-width="2" d="M3 12.667V8h12v7M15 8h6v7h-6zM25 5h6v10h-6z"/><path stroke="currentColor" stroke-width="2" d="M25 5h6v4h-6zM5 4h8v4H5z"/><path d="M28 5V.5" stroke="currentColor" stroke-width="2" stroke-linecap="square"/><path d="M0 23.129c.886 0 1.772-.424 2.658-1.271h0a2.763 2.763 0 0 1 3.863.042h0c1.201 1.201 3.148 1.201 4.348 0h0c1.2-1.2 3.147-1.2 4.348 0h0c1.2 1.201 3.147 1.201 4.347 0h0c1.201-1.2 3.148-1.2 4.348 0h0c1.2 1.201 3.147 1.201 4.348 0h0a2.927 2.927 0 0 1 4.053-.082c.948.874 1.771 1.31 2.468 1.31M0 27.129c.886 0 1.772-.424 2.658-1.271h0a2.763 2.763 0 0 1 3.863.042h0c1.201 1.201 3.148 1.201 4.348 0h0c1.2-1.2 3.147-1.2 4.348 0h0c1.2 1.201 3.147 1.201 4.347 0h0c1.201-1.2 3.148-1.2 4.348 0h0c1.2 1.201 3.147 1.201 4.348 0h0a2.927 2.927 0 0 1 4.053-.082c.948.874 1.771 1.31 2.468 1.31" stroke="currentColor" stroke-width="2" stroke-linecap="round" stroke-linejoin="round"/><circle fill="currentColor" cx="25" cy="18" r="1"/><circle fill="currentColor" cx="29" cy="18" r="1"/><circle fill="currentColor" cx="21" cy="18" r="1"/><rect fill="currentColor" x="4" y="14" width="4" height="2" rx="1"/></g></svg>