<svg viewBox="0 0 32 26" xmlns="http://www.w3.org/2000/svg"><g fill-rule="nonzero" fill="none"><path d="M14.143 19.045l7.232-7.232a5.501 5.501 0 0 1-7.232 7.232zm-2.028-1.508a5.501 5.501 0 0 1 7.752-7.752l-7.752 7.752z" fill="#272727"/><path d="M24.636 8.585l1.436-1.467c2.383 1.653 4.2 3.82 5.487 6.431l.218.443-.218.442c-2.851 5.783-8.712 9.52-15.237 9.52-1.905 0-4.398-.413-5.805-1.107l1.407-1.536c1.556.54 2.717.643 4.398.643 5.587 0 10.623-3.108 13.216-7.962-1.132-2.118-2.934-4.041-4.902-5.407zM8.36 19.65l-1.07 1.69a17.16 17.16 0 0 1-6.205-6.906l-.218-.442.218-.443c2.851-5.782 8.711-9.52 15.237-9.52 2.232 0 4.405.434 6.429 1.267l-.762 1.85a14.845 14.845 0 0 0-5.667-1.117c-5.587 0-10.623 3.108-13.216 7.963A15.158 15.158 0 0 0 8.36 19.65z" fill="#272727"/><path d="M26.636 1.678L4.008 24.305" stroke="#272727" stroke-width="2" stroke-linecap="square"/></g></svg>