<svg viewBox="0 0 26 32" xmlns="http://www.w3.org/2000/svg"><g fill-rule="nonzero" fill="none"><path d="M1.881 1.196h15.244l7.488 7.714v21.928H1.88V1.196z" stroke="#272727" stroke-width="2"/><path fill="#272727" d="M15.7.858l9.25 9.25H15.7zM22.057 21.45c-.147-.809-.849-1.865-3.349-2.33-.962-.18-2.07-.245-3.256-.197-.473-.462-.94-.966-1.39-1.503a20.659 20.659 0 0 1-1.239-1.63c.253-1.159.381-2.263.372-3.241-.025-2.536-.938-3.412-1.707-3.7a1.371 1.371 0 0 0-1.428.252c-.624.534-1.182 1.67-.338 4.06.326.923.824 1.916 1.458 2.919-.163.64-.366 1.296-.606 1.955-.24.66-.506 1.292-.793 1.887-1.13.361-2.15.802-2.992 1.299-2.2 1.298-2.49 2.535-2.348 3.345l.006.028c.1.471.427.862.873 1.046l.034.013c.198.073.429.121.69.121.76 0 1.777-.41 3.011-1.852.637-.743 1.248-1.671 1.799-2.721a20.671 20.671 0 0 1 1.996-.453c.691-.122 1.373-.208 2.031-.258.878.799 1.77 1.462 2.621 1.943 2.215 1.25 3.431.892 4.063.367.405-.326.592-.841.492-1.35zM7.89 22.924c-.91 1.063-1.597 1.366-1.945 1.305.001-.352.418-.977 1.623-1.689.311-.183.651-.359 1.015-.524-.226.33-.458.634-.693.908zm3.718-9.22c-.172-.361-.32-.714-.44-1.054-.466-1.32-.384-2.067-.158-2.337.306.177.638.85.652 2.25.003.36-.015.743-.054 1.14zm.976 5.533c-.304.053-.604.112-.9.177a22.828 22.828 0 0 0 .627-1.724 22.973 22.973 0 0 0 1.18 1.405c-.3.041-.603.088-.907.142zm5.672 1.86a10.757 10.757 0 0 1-.962-.617c.399.03.778.08 1.133.146 1.376.256 1.982.7 2.103 1.032-.306.175-1.056.126-2.274-.561z"/></g></svg>