<svg viewBox="0 0 30 30" xmlns="http://www.w3.org/2000/svg"><g transform="translate(2 1.48)" fill-rule="nonzero" stroke="#272727" stroke-width="2" fill="none"><circle cx="13.07" cy="13.52" r="4.827"/><path d="M7.499 4.102a10.88 10.88 0 0 1 2.85-1.182l.543-3.261h4.6l.555 3.329c.911.257 1.782.631 2.593 1.111l2.691-1.922 3.253 3.253-1.962 2.747c.46.822.813 1.702 1.048 2.619l3.262.544v4.6l-3.33.554a10.883 10.883 0 0 1-1.111 2.593l1.922 2.692-3.252 3.252-2.748-1.962a10.88 10.88 0 0 1-2.37.982l-.55 3.3h-4.6l-.54-3.232c-.92-.235-1.803-.59-2.628-1.052l-2.723 1.945-3.253-3.253 1.906-2.667a10.883 10.883 0 0 1-1.116-2.602l-3.3-.55v-4.6l3.232-.54c.236-.92.59-1.803 1.053-2.627L1.579 5.449 4.83 2.197 7.5 4.102z"/></g></svg>