<svg viewBox="0 0 32 30" xmlns="http://www.w3.org/2000/svg"><path d="M15.966 19.918c2.602.01 4.777-2.131 4.792-4.717.016-2.676-2.122-4.85-4.773-4.855-2.605-.004-4.78 2.14-4.79 4.72-.011 2.686 2.11 4.842 4.77 4.852m-5.51-2.287a9.748 9.748 0 0 0-2.02.69c-.622.285-1.206.63-1.672 1.141-.517.567-.76 1.217-.533 1.98.147.495.459.884.85 1.211.59.49 1.264.827 1.976 1.095 1.843.694 3.769.974 5.721 1.068 1.874.09 3.743-.011 5.59-.372 1.326-.26 2.622-.612 3.801-1.299.491-.286.94-.625 1.264-1.104.502-.74.511-1.58-.025-2.294a3.986 3.986 0 0 0-.818-.804c-.88-.647-1.896-1.005-2.943-1.282-.047-.012-.1-.001-.165-.001l-.548.962c.06.028.094.048.13.059.086.026.173.047.26.07.942.26 1.867.568 2.67 1.146.944.679.94 1.31.005 2.005-.017.013-.045.013-.089.024-.213-.374-.546-.628-.931-.817-1.156-.57-2.4-.789-3.629-.94-2.271 1.347-4.504 1.336-6.746.002-.898.096-1.79.263-2.658.546-.746.243-1.475.52-1.941 1.245-.173-.158-.337-.284-.472-.435-.37-.413-.393-.839-.003-1.231.285-.287.616-.562.98-.727.696-.317 1.429-.554 2.148-.821.114-.043.231-.075.369-.119l-.572-.998m20.968 5.507c-.058.545-.354.958-.877 1.156l-6.369 2.4c-2.518.949-5.038 1.895-7.553 2.854a1.73 1.73 0 0 1-1.302-.003c-4.614-1.749-9.233-3.486-13.85-5.225-.87-.328-1.147-1.142-.64-1.923.93-1.43 1.87-2.853 2.804-4.28C7.382 12.399 11.13 6.682 14.872.962c.241-.37.544-.606.993-.632.502-.03.895.142 1.177.575.824 1.27 1.657 2.533 2.487 3.799L30.705 21.76c.148.225.313.442.437.68.116.22.188.464.28.698" fill="#272727" fill-rule="evenodd"/></svg>