<svg viewBox="0 0 20 20" xmlns="http://www.w3.org/2000/svg"><g fill="none" fill-rule="nonzero"><path d="M17.022 19.667v-4.8h-2.4v4.8H0v-8.8h20v8.8h-2.978zM2.4 13.267v2.4H4v-2.4H2.4zm3.2 0v2.4h1.6v-2.4H5.6zm3.2 0v2.4h1.6v-2.4H8.8zM15.394.04h2.133l.534 9.6h-3.2l.533-9.6zm-4.07 0h2.134l.533 9.6h-3.2l.534-9.6z" fill="#272727"/><g stroke="#272727" stroke-linecap="round" stroke-linejoin="round" stroke-width="1.5"><path d="M1.149 1.92l.675.696a1 1 0 0 0 1.425.01l.361-.361a1 1 0 0 1 1.415 0l.372.372a1 1 0 0 0 1.414 0l.367-.368a1 1 0 0 1 1.42.005l.726.736M.789 5.35l.675.696a1 1 0 0 0 1.424.01l.362-.362a1 1 0 0 1 1.414 0l.373.372a1 1 0 0 0 1.414 0l.367-.367a1 1 0 0 1 1.419.005l.727.736"/></g></g></svg>