<svg viewBox="0 0 26 33" xmlns="http://www.w3.org/2000/svg"><g fill="none" fill-rule="evenodd"><path d="M1.381 1.827h15.244l7.488 7.715V31.47H1.38V1.827z" stroke="currentColor" stroke-width="2" fill-rule="nonzero"/><path fill="currentColor" fill-rule="nonzero" d="M15.2 1.49l9.25 9.25H15.2z"/><path d="M8.618 27.11c-1.084 0-2.12-.862-2.12-2.249v-3.124c0-.59-.271-1.1-.83-1.1v-.892c.559 0 .83-.51.83-1.1v-3.109c0-1.387 1.036-2.263 2.12-2.263h.972v1.02h-.972c-.558 0-1.036.494-1.036 1.243v3.236c0 .67-.208 1.196-.734 1.419.526.223.734.75.734 1.419v3.236c0 .733.478 1.243 1.036 1.243h.972v1.02h-.972zm4.17-8.846c-.542 0-.988-.462-.988-.988 0-.542.446-1.005.988-1.005a1.02 1.02 0 0 1 1.004 1.005c0 .526-.462.988-1.004.988zm-.303 6.802l-.67-.558c.51-.319 1.005-.957 1.085-1.483-.032 0-.16.032-.24.032-.494 0-.86-.382-.86-.908 0-.542.43-.973.972-.973.59 0 1.116.478 1.116 1.323 0 1.036-.59 1.993-1.403 2.567zm3.403 1.023h.972c.574 0 1.036-.51 1.036-1.243V21.61c0-.67.208-1.196.734-1.42-.526-.222-.734-.748-.734-1.418v-3.236c0-.749-.462-1.243-1.036-1.243h-.972v-1.02h.972c1.084 0 2.136.876 2.136 2.263v3.109c0 .59.271 1.1.83 1.1v.892c-.559 0-.83.51-.83 1.1v3.124c0 1.387-1.052 2.248-2.136 2.248h-.972v-1.02z" stroke="currentColor" stroke-width=".5" fill="currentColor"/></g></svg>