<svg viewBox="0 0 32 30" xmlns="http://www.w3.org/2000/svg"><g fill-rule="nonzero" stroke="currentColor" stroke-width="2" fill="none" stroke-linejoin="round"><path d="M9.024 4.082l7.143 3.091v9.275l-7.143-3.092zM23.31 4.082l-7.143 3.091v9.275l7.143-3.092z"/><path d="M16.167 1.224l7.143 2.858-7.143 2.857-7.143-2.857zM16.167 16.293l7.143 3.092v9.274l-7.143-3.091z"/><path d="M30.453 16.293l-7.143 3.092v9.274l7.143-3.091zM23.31 13.436l7.143 2.857-7.143 2.857-7.143-2.857zM1.881 16.293l7.143 3.092v9.274L1.88 25.568z"/><path d="M16.167 16.293l-7.143 3.092v9.274l7.143-3.091zM9.024 13.436l7.143 2.857-7.143 2.857-7.143-2.857z"/></g></svg>