<svg viewBox="0 0 23 23" xmlns="http://www.w3.org/2000/svg"><path d="M10.35 9.385v-2.3c-1.73-.34-2.54-.897-2.54-2.285 0-1.3.964-2.147 2.438-2.313V.883h1.289v1.621c1.431.199 2.33 1.003 2.404 2.38l.012.222-.22.042-.794.145h-.286l-.022-.232c-.067-.735-.476-1.14-1.22-1.276v2.071c1.787.331 2.606.854 2.606 2.215 0 1.517-.982 2.377-2.48 2.578v1.775h-1.29v-1.76c-1.538-.178-2.526-.974-2.588-2.42L7.65 8.03l.21-.045.812-.168h.292l.016.237c.056.799.524 1.217 1.37 1.332zm1.062 0c.768-.114 1.208-.505 1.208-1.228 0-.453-.297-.667-1.208-.87v2.097zM10.35 3.76c-.733.097-1.142.463-1.142 1.03 0 .447.284.665 1.142.863V3.76zm11.315 12.55c2.003 1.614-3.438 4.68-7.469 4.68-3.23 0-4.85-.663-6.86-.663-2.246 0-3.832 1.922-3.832 1.922L.096 18.026s2.994-4.341 9.186-4.341c2.13 0 3.64.386 5.502.386 1.862 0 1.862 2.238 0 2.238h-4.088c0 .586 1.906 1.572 4.609 1.572 4.773 0 5.112-2.576 6.36-1.572z" fill="currentColor" fill-rule="nonzero"/></svg>