<svg viewBox="0 0 18 18" xmlns="http://www.w3.org/2000/svg"><path d="M10.93 3a3.387 3.387 0 0 1 6.682.774 3.386 3.386 0 0 1-5.132 2.901L6.67 12.47c.191.315.33.66.41 1.022h3.841a3.387 3.387 0 0 1 6.692.734 3.386 3.386 0 0 1-6.674.812H7.062a3.387 3.387 0 0 1-6.674-.812 3.386 3.386 0 0 1 5.198-2.86l5.787-5.77a3.368 3.368 0 0 1-.444-1.05H7.071a3.387 3.387 0 0 1-6.683-.772A3.386 3.386 0 0 1 7.07 3h3.858zm3.296 13.067a1.84 1.84 0 1 0 0-3.681 1.84 1.84 0 0 0 0 3.681z" fill="#272727" fill-rule="nonzero"/></svg>