<svg viewBox="0 0 30 30" xmlns="http://www.w3.org/2000/svg"><path d="M12.035 3.533L12.625 0h4.982l.601 3.607c.987.278 1.93.683 2.81 1.204l2.915-2.083 3.523 3.524-2.125 2.976c.499.89.881 1.843 1.136 2.837l3.533.589v4.983l-3.607.601a11.79 11.79 0 0 1-1.204 2.81l2.083 2.915-3.524 3.523-2.976-2.125c-.81.453-1.671.811-2.569 1.064L17.607 30h-4.983l-.584-3.502a11.783 11.783 0 0 1-2.847-1.14l-2.95 2.107-3.523-3.523 2.064-2.89a11.79 11.79 0 0 1-1.209-2.819L0 17.637v-4.983l3.502-.584c.255-.997.639-1.953 1.14-2.847l-2.107-2.95L6.058 2.75l2.89 2.064c.961-.57 2-1.001 3.087-1.28zM15 20.69a5.69 5.69 0 1 0 0-11.38 5.69 5.69 0 0 0 0 11.38z" fill="#272727" fill-rule="nonzero"/></svg>