<svg viewBox="0 0 34 22" xmlns="http://www.w3.org/2000/svg"><path d="M26.698 4.3l4.164 3.138-7.472 9.916-4.164-3.138L26.698 4.3zm-4.985 15.42l-4.085 1.09-.079-4.229.68-.901 4.164 3.138-.68.901zM29.803.038l4.164 3.138-2.135 2.833-4.164-3.138L29.803.039zM15.599 21.672c-1.062 0-1.522-.545-2.192-1.914l-.022-.047c-.4-.816-.578-1.03-.777-1.03-.21 0-.398.227-.826 1.083-.694 1.387-1.129 1.908-2.164 1.908-1.036 0-1.47-.521-2.164-1.908-.428-.856-.617-1.083-.827-1.083-.21 0-.399.227-.827 1.083-.693 1.387-1.128 1.908-2.164 1.908-1.221 0-1.91-.686-2.77-2.174-.022-.039-.243-.427-.306-.534a5.644 5.644 0 0 0-.373-.576.748.748 0 0 1 1.188-.908c.154.2.298.425.476.73.067.114.292.508.311.54.604 1.047.985 1.427 1.474 1.427.21 0 .399-.226.827-1.082.693-1.387 1.128-1.909 2.164-1.909 1.036 0 1.47.522 2.164 1.909.428.856.616 1.082.827 1.082.21 0 .398-.226.826-1.082.694-1.387 1.128-1.909 2.164-1.909 1.026 0 1.463.525 2.12 1.869l.023.046c.415.85.606 1.076.848 1.076a.748.748 0 0 1 0 1.495z" fill="currentColor" fill-rule="nonzero"/></svg>