<?xml version="1.0" encoding="UTF-8"?>
<svg width="45px" height="45px" viewBox="0 0 45 45" version="1.1" xmlns="http://www.w3.org/2000/svg" xmlns:xlink="http://www.w3.org/1999/xlink">
    <!-- Generator: Sketch 51.3 (57544) - http://www.bohemiancoding.com/sketch -->
    <title>Group 9</title>
    <desc>Created with Sketch.</desc>
    <defs></defs>
    <g id="Page-4" stroke="none" stroke-width="1" fill="none" fill-rule="evenodd">
        <g id="Login-Split-Copy-2" transform="translate(-583.000000, -422.000000)">
            <g id="Group-7" transform="translate(582.000000, 421.000000)">
                <g id="Rectangle-8">
                    <g id="Group-9" transform="translate(1.000000, 1.000000)">
                        <rect id="Rectangle-8" fill="#FFFFFF" x="0" y="0" width="45" height="45"></rect>
                        <g id="Group-2" transform="translate(10.000000, 10.000000)" fill="#606E7B" fill-rule="nonzero">
                            <path d="M12.5239781,24.368224 C5.93696611,24.368224 0.597137848,19.0283957 0.597137848,12.4413837 C0.597137848,5.85437173 5.93696611,0.514543459 12.5239781,0.514543459 C19.1109901,0.514543459 24.4508183,5.85437173 24.4508183,12.4413837 C24.4508183,19.0283957 19.1109901,24.368224 12.5239781,24.368224 Z M12.5239781,22.5825097 C18.1247673,22.5825097 22.6651041,18.0421729 22.6651041,12.4413837 C22.6651041,6.84059449 18.1247673,2.30025774 12.5239781,2.30025774 C6.92318888,2.30025774 2.38285213,6.84059449 2.38285213,12.4413837 C2.38285213,18.0421729 6.92318888,22.5825097 12.5239781,22.5825097 Z" id="Oval-4-Copy"></path>
                            <path d="M8.98291935,14.3731712 C8.00934872,13.3520254 7.40707452,11.9154826 7.40707452,10.3342814 C7.40707452,7.26560071 9.6754942,4.7417648 12.5239781,4.7417648 C15.372462,4.7417648 17.6408817,7.26560071 17.6408817,10.3342814 C17.6408817,11.9154826 17.0386075,13.3520254 16.0650368,14.3731712 L18.3864057,14.3731712 L19.7521251,21.4458226 L17.9987999,21.7843874 L16.9125231,16.1588855 L8.13543312,16.1588855 L7.04915631,21.7843874 L5.29583106,21.4458226 L6.66155049,14.3731712 L8.98291935,14.3731712 Z M12.5239781,14.1410837 C14.3412471,14.1410837 15.8551674,12.4567012 15.8551674,10.3342814 C15.8551674,8.21186162 14.3412471,6.52747909 12.5239781,6.52747909 C10.7067091,6.52747909 9.19278881,8.21186162 9.19278881,10.3342814 C9.19278881,12.4567012 10.7067091,14.1410837 12.5239781,14.1410837 Z" id="Combined-Shape"></path>
                        </g>
                    </g>
                </g>
            </g>
        </g>
    </g>
</svg>