<svg width="27" height="27" viewBox="0 0 27 27" xmlns="http://www.w3.org/2000/svg"><title>Combined Shape Copy 20</title><path d="M7.255 22.939a11.305 11.305 0 0 0 6.103 1.777c2.246 0 4.34-.652 6.103-1.777l-1.188-6.152h-9.83L7.255 22.94zm-1.768-1.392l1.305-6.76h2.6c-1.09-1.144-1.765-2.752-1.765-4.523C7.627 6.827 10.167 4 13.358 4c3.19 0 5.731 2.827 5.731 6.264 0 1.77-.675 3.38-1.765 4.523h2.6l1.305 6.76a11.325 11.325 0 0 0 3.487-8.189C24.716 7.085 19.631 2 13.358 2 7.085 2 2 7.085 2 13.358c0 3.217 1.338 6.122 3.487 8.189zm7.871 5.17C5.981 26.716 0 20.735 0 13.357 0 5.981 5.98 0 13.358 0s13.358 5.98 13.358 13.358-5.98 13.358-13.358 13.358zm0-12.19c2.035 0 3.731-1.886 3.731-4.263S15.393 6 13.359 6c-2.036 0-3.732 1.887-3.732 4.264 0 2.377 1.696 4.263 3.731 4.263z" fill="#FFF"/></svg>