<svg width="27" height="27" viewBox="0 0 27 27" xmlns="http://www.w3.org/2000/svg"><title>Combined Shape</title><path d="M7.255 23.125a11.305 11.305 0 0 0 6.103 1.777c2.246 0 4.34-.652 6.103-1.777l-1.188-6.152h-9.83l-1.188 6.152zm-1.768-1.393l1.305-6.759h2.6c-1.09-1.144-1.765-2.753-1.765-4.524 0-3.436 2.54-6.263 5.731-6.263 3.19 0 5.731 2.827 5.731 6.263 0 1.771-.675 3.38-1.765 4.524h2.6l1.305 6.76a11.325 11.325 0 0 0 3.487-8.19c0-6.272-5.085-11.357-11.358-11.357C7.085 2.186 2 7.27 2 13.544c0 3.217 1.338 6.122 3.487 8.188zm7.871 5.17C5.981 26.902 0 20.922 0 13.544S5.98.186 13.358.186s13.358 5.98 13.358 13.358c0 7.377-5.98 13.358-13.358 13.358zm0-12.189c2.035 0 3.731-1.886 3.731-4.264 0-2.377-1.696-4.263-3.73-4.263-2.036 0-3.732 1.886-3.732 4.263 0 2.378 1.696 4.264 3.731 4.264z" fill="#FFF" opacity=".25"/></svg>