<svg width="30" height="30" viewBox="0 0 30 30" xmlns="http://www.w3.org/2000/svg"><title>Combined Shape</title><path d="M22.969 8.79H30V30H0V8.79h7.031V3.515H8.79V0h12.422v3.516h1.758v5.273zM7.03 28.241V10.547H1.758v17.695H7.03zm3.516-26.484v1.758h8.906V1.758h-8.906zm3.574 26.484v-7.148H8.79v7.148h5.332zm7.09 0v-7.148h-5.332v7.148h5.332zm0-8.906V15.82H8.789v3.516h12.422zm0-5.273v-3.516H8.789v3.515h12.422zm0-5.274V5.273H8.789V8.79h12.422zm7.031 19.453V10.547H22.97v17.695h5.273zM3.462 12.26h1.755v3.519H3.462v-3.52zm0 5.278h1.755v3.52H3.462v-3.52zm21.177-5.278h1.755v3.519H24.64v-3.52zm0 5.278h1.755v3.52H24.64v-3.52z" fill="#FFF" opacity=".25"/></svg>