<svg width="28" height="29" viewBox="0 0 28 29" xmlns="http://www.w3.org/2000/svg"><title>Combined Shape</title><path d="M23.885 2.196l-3.09 4.263V0H0v29h20.795V15.33L28 5.392l-4.115-3.195zM19.153 27.3H1.642V1.699h17.511v7.025l-2.695 3.718H3.977v1.7h11.249l-1.396 1.925H3.977v1.7h9.134l.432 3.132 3.6-.532 2.01-2.772v9.706zm-1.86-9.972l-1.054 1.455-1.303.192-.185-1.348 1.055-1.455 1.488 1.156zm.986-1.36l-1.488-1.155L20.36 9.89l1.488 1.156-3.569 4.923zm3.066-7.437l2.868-3.957 1.489 1.156-2.869 3.956-1.488-1.155zM12.42 22.19h1.508v1.669h-1.017l-2.292 1.57-1.036-2.127-.49.557h-2.2v-1.67h1.48l1.601-1.816 1.274 2.62 1.172-.803zM4.02 8.923h12.924v1.636H4.02V8.923zm3.447-4.461h5.887v1.635H7.467V4.462z" fill="#FFF" opacity=".25"/></svg>