<svg width="33" height="20" viewBox="0 0 33 20" xmlns="http://www.w3.org/2000/svg"><title>Shape</title><path d="M29.842 8.623V4.086h-6.67V0H0v16.873h3.329C3.518 18.63 4.988 20 6.769 20c1.78 0 3.25-1.37 3.438-3.127h13.911c.19 1.756 1.66 3.127 3.44 3.127s3.25-1.37 3.439-3.127H33v-6.348l-3.158-1.902zm-6.67-2.575h4.736V8.2h-4.735V6.048zM8.248 16.873a1.532 1.532 0 0 1-1.479 1.165c-.71 0-1.31-.496-1.478-1.165a1.57 1.57 0 0 1-.048-.384 1.54 1.54 0 0 1 1.526-1.549 1.54 1.54 0 0 1 1.526 1.55c0 .132-.016.26-.047.383zm12.992-1.962H9.86a3.458 3.458 0 0 0-3.09-1.933c-1.35 0-2.52.788-3.09 1.933H1.933V1.962h19.305v12.95zm7.797 1.962a1.532 1.532 0 0 1-1.478 1.165c-.711 0-1.31-.496-1.479-1.165a1.57 1.57 0 0 1-.048-.384 1.54 1.54 0 0 1 1.527-1.549 1.54 1.54 0 0 1 1.526 1.55c0 .132-.017.26-.048.383zm2.03-1.962h-.419a3.458 3.458 0 0 0-3.09-1.933 3.46 3.46 0 0 0-3.09 1.933h-1.294v-4.75h5.437v.001l2.456 1.48v3.27z" fill="#FFF" opacity=".25"/></svg>