<?xml version="1.0" encoding="UTF-8"?>
<svg width="358px" height="109px" viewBox="0 0 358 109" version="1.1" xmlns="http://www.w3.org/2000/svg" xmlns:xlink="http://www.w3.org/1999/xlink">
    <!-- Generator: Sketch 51.3 (57544) - http://www.bohemiancoding.com/sketch -->
    <title>Group 8</title>
    <desc>Created with Sketch.</desc>
    <defs></defs>
    <g id="Page-4" stroke="none" stroke-width="1" fill="none" fill-rule="evenodd">
        <g id="Login-Split-Copy" transform="translate(-541.000000, -278.000000)">
            <g id="Group-8" transform="translate(540.500000, 278.000000)">
                <g id="Group-4" transform="translate(0.000000, 0.397018)" fill="#F4F5F6">
                    <path d="M19.6719073,42.9923761 C9.10343041,42.9793226 0.510423538,36.0435064 0.510423538,21.5291355 C0.510423538,7.12065246 8.8804967,0.305021452 19.4028744,0.305021452 C28.6099549,0.305021452 35.9038758,4.13134061 36.8604556,13.8764972 L32.3764878,14.7135045 C31.4796942,7.89787354 26.6370091,4.60963051 19.4028744,4.60963051 C11.7502361,4.60963051 5.41289496,9.99039183 5.41289496,21.5291355 C5.41289496,33.008093 12.1089535,38.6279993 19.8213781,38.6279993 C27.0555127,38.6279993 32.3764878,34.8614664 33.1537089,28.1056216 L37.5778904,28.8230564 C36.741772,38.557864 29.0448315,42.9829919 19.6719181,42.9923796 L19.6719073,42.9923761 Z" id="Path"></path>
                    <path d="M9.44623105,42.9923796 C9.4362667,42.9923896 9.42630045,42.9923946 9.41633231,42.9923946 L9.47611855,42.9923946 C9.4661507,42.9923946 9.4561846,42.9923884 9.44622025,42.9923761 L9.44623105,42.9923796 Z" id="Path"></path>
                    <path d="M72.7321977,26.6707519 C72.7321977,37.1333434 66.8133602,42.9923946 57.6062798,42.9923946 C48.3991993,42.9923946 42.4205756,37.1333434 42.4205756,26.6707519 C42.4205756,16.1483742 48.3991993,10.289323 57.6062798,10.289323 C66.8133602,10.289323 72.7321977,16.1483742 72.7321977,26.6707519 Z M47.0839021,26.6707519 C47.0839021,34.263604 50.9102212,39.1660754 57.6062798,39.1660754 C64.3023383,39.1660754 68.1286575,34.263604 68.1286575,26.6707519 C68.1286575,18.9583274 64.3023383,14.1156422 57.6062798,14.1156422 C50.9102212,14.1156422 47.0839021,18.9583274 47.0839021,26.6707519 Z" id="Combined-Shape"></path>
                    <path d="M77.8450522,3.53347824 L82.3290199,3.53347824 L82.3290199,11.0067579 L91.1175968,11.0067579 L91.1175968,14.7732908 L82.3290199,14.7732908 L82.3290199,34.8016801 C82.3290199,38.1497094 83.7041034,39.2258617 86.5140565,39.2258617 C87.7695675,39.2258617 89.6827271,38.8671442 91.3567417,38.3290681 L91.8350316,42.1553873 C90.161017,42.6336772 87.1717051,42.9923946 85.378118,42.9923946 C81.073509,42.9923946 77.8450522,41.4977387 77.8450522,35.4593287 L77.8450522,3.53347824 Z" id="Path"></path>
                    <path d="M97.1916069,3.53347824 L101.675575,3.53347824 L101.675575,11.0067579 L110.464152,11.0067579 L110.464152,14.7732908 L101.675575,14.7732908 L101.675575,34.8016801 C101.675575,38.1497094 103.050658,39.2258617 105.860611,39.2258617 C107.116122,39.2258617 109.029282,38.8671442 110.703296,38.3290681 L111.181586,42.1553873 C109.507572,42.6336772 106.51826,42.9923946 104.724673,42.9923946 C100.420064,42.9923946 97.1916069,41.4977387 97.1916069,35.4593287 L97.1916069,3.53347824 Z" id="Path"></path>
                    <path d="M143.756007,26.6707519 C143.756007,37.1333434 137.837169,42.9923946 128.630089,42.9923946 C119.423008,42.9923946 113.444385,37.1333434 113.444385,26.6707519 C113.444385,16.1483742 119.423008,10.289323 128.630089,10.289323 C137.837169,10.289323 143.756007,16.1483742 143.756007,26.6707519 Z M118.107711,26.6707519 C118.107711,34.263604 121.93403,39.1660754 128.630089,39.1660754 C135.326147,39.1660754 139.152466,34.263604 139.152466,26.6707519 C139.152466,18.9583274 135.326147,14.1156422 128.630089,14.1156422 C121.93403,14.1156422 118.107711,18.9583274 118.107711,26.6707519 Z" id="Combined-Shape"></path>
                    <path d="M149.375913,11.0067579 L153.501163,11.0067579 L153.501163,16.3277329 L153.740308,16.3277329 C155.653468,12.0231239 160.257008,10.289323 164.621403,10.289323 C171.257676,10.289323 175.622071,14.1754284 175.622071,21.4693493 L175.622071,42.2749597 L171.197889,42.2749597 L171.197889,21.7682805 C171.197889,17.2245265 168.985799,14.1156422 163.605037,14.1156422 C156.669834,14.1156422 153.859881,19.4366173 153.859881,24.3390887 L153.859881,42.2749597 L149.375913,42.2749597 L149.375913,11.0067579 Z" id="Path"></path>
                    <polygon id="Path" points="182.114278 1.02245629 186.837391 1.02245629 186.837391 37.9703507 205.331641 37.9703507 205.331641 42.2749597 182.114278 42.2749597"></polygon>
                    <path d="M231.881095,31.991727 L235.946559,32.5895894 C235.229124,39.4052204 229.370073,42.9923946 222.076152,42.9923946 C213.706079,42.9923946 207.607883,37.9703507 207.607883,26.6707519 C207.607883,16.3875192 213.466934,10.289323 222.076152,10.289323 C231.223446,10.289323 235.826987,15.849443 235.826987,23.920585 L235.826987,27.5077592 L212.271209,27.5077592 C212.211423,35.2201838 215.858383,39.1660754 222.195725,39.1660754 C226.918837,39.1660754 231.16366,37.2529159 231.881095,31.991727 Z M222.135938,14.1156422 C216.39646,14.1156422 212.749499,17.8223889 212.390782,23.8010126 L231.283233,23.8010126 L231.283233,22.7248603 C231.283233,17.9419613 228.353707,14.1156422 222.135938,14.1156422 Z" id="Combined-Shape"></path>
                    <path d="M265.333465,1.02245629 L269.817433,1.02245629 L269.817433,42.2749597 L265.632396,42.2749597 L265.632396,36.2365498 C263.300733,41.2585937 258.756979,42.9923946 254.571942,42.9923946 C246.680159,42.9923946 241.359184,37.790992 241.359184,26.6707519 C241.359184,15.5505119 246.680159,10.289323 254.571942,10.289323 C258.517834,10.289323 263.001802,12.2024826 265.333465,16.6266641 L265.333465,1.02245629 Z M255.528522,39.2258617 C261.387573,39.2258617 265.512824,35.27997 265.512824,26.6707519 C265.512824,18.1811063 261.387573,14.0558559 255.528522,14.0558559 C248.89225,14.0558559 245.962724,19.0181136 245.962724,26.7305382 C245.962724,34.4429627 248.952036,39.2258617 255.528522,39.2258617 Z" id="Combined-Shape"></path>
                    <path d="M301.476216,21.648708 C301.476216,28.8828427 296.274813,32.5895894 288.921106,32.5895894 C286.709015,32.5895894 284.556711,32.1710857 282.82291,31.3340784 C281.38804,32.2906582 280.849964,33.3668105 280.849964,34.4429627 C280.849964,35.9376186 282.165261,37.3127021 284.915428,37.3127021 L294.242081,37.3127021 C300.45985,37.3127021 304.047024,39.8835103 304.047024,44.9653404 C304.047024,51.183109 299.084766,54.5311383 289.279823,54.5311383 C278.757446,54.5311383 275.230058,51.4820402 275.230058,46.4599963 C275.230058,43.7098294 276.844286,40.9596625 280.730391,40.1226552 C278.159583,39.4052204 276.545355,37.4920608 276.545355,35.1006113 C276.545355,33.247238 277.561721,31.0949335 280.192315,29.8992087 C277.860652,28.0458354 276.485569,25.1163098 276.485569,21.4693493 C276.485569,14.7135045 281.148895,10.3491092 288.921106,10.3491092 C290.236403,10.3491092 295.497592,10.3504002 304.704672,10.352982 L304.704672,13.9430699 L298.541748,13.9430699 C300.275549,15.6170845 301.476216,18.8387549 301.476216,21.648708 Z M281.148895,21.4693493 C281.148895,26.192462 284.018634,28.8230564 288.921106,28.8230564 C293.94315,28.8230564 296.812889,26.192462 296.812889,21.4693493 C296.812889,16.7462366 293.94315,14.1156422 288.921106,14.1156422 C284.018634,14.1156422 281.148895,16.7462366 281.148895,21.4693493 Z M294.242081,41.3781662 L285.632863,41.3781662 C281.627185,41.3781662 279.893384,43.7098294 279.893384,46.1012789 C279.893384,49.2699495 282.225047,50.7048192 289.220037,50.7048192 C296.693317,50.7048192 299.383697,49.150377 299.383697,45.3240578 C299.383697,42.7532496 297.410752,41.3781662 294.242081,41.3781662 Z" id="Combined-Shape"></path>
                    <path d="M331.958118,31.991727 L336.023582,32.5895894 C335.306147,39.4052204 329.447096,42.9923946 322.153175,42.9923946 C313.783102,42.9923946 307.684905,37.9703507 307.684905,26.6707519 C307.684905,16.3875192 313.543957,10.289323 322.153175,10.289323 C331.300469,10.289323 335.904009,15.849443 335.904009,23.920585 L335.904009,27.5077592 L312.348232,27.5077592 C312.288446,35.2201838 315.935406,39.1660754 322.272747,39.1660754 C326.99586,39.1660754 331.240683,37.2529159 331.958118,31.991727 Z M322.212961,14.1156422 C316.473482,14.1156422 312.826522,17.8223889 312.467804,23.8010126 L331.360255,23.8010126 L331.360255,22.7248603 C331.360255,17.9419613 328.43073,14.1156422 322.212961,14.1156422 Z" id="Combined-Shape"></path>
                    <path d="M357.452379,10.6480404 L358.169814,10.6480404 L358.169814,14.9526495 L357.332807,14.9526495 C349.919313,14.9526495 346.272353,20.393197 346.272353,27.2088281 L346.272353,42.2749597 L341.788385,42.2749597 L341.788385,11.0067579 L346.15278,11.0067579 L346.15278,18.0615338 L346.332139,18.0615338 C347.946367,12.6807725 352.609694,10.6480404 357.452379,10.6480404 Z" id="Path"></path>
                </g>
                <g id="Group-3" transform="translate(85.195388, 63.667223)">
                    <path d="M3.34728193,18.3050511 L5.76414056,18.3050511 L5.76414056,19.3572888 L3.38016436,19.3572888 L3.38016436,26.9038066 L2.16351444,26.9038066 L2.16351444,19.3572888 L0.519392926,19.3572888 L0.519392926,18.3050511 L2.1141908,18.3050511 C2.04842593,18.0419916 2.03198472,17.762491 2.03198472,17.5158728 C2.03198472,16.1841343 2.90336912,15.3620736 4.59681428,15.3620736 C5.22158046,15.3620736 5.84634663,15.4607209 6.40534795,15.6086918 L6.40534795,16.6444884 C5.86278785,16.4965174 5.40243382,16.3814289 4.87631494,16.3814289 C3.79119474,16.3814289 3.28151707,16.7924593 3.28151707,17.6967261 C3.28151707,17.8775795 3.3143995,18.0913153 3.34728193,18.3050511 Z M11.8503795,18.2064038 L12.0476741,18.2064038 L12.0476741,19.3901713 L11.817497,19.3901713 C9.77878637,19.3901713 8.77587225,20.8863219 8.77587225,22.7606204 L8.77587225,26.9038066 L7.54278111,26.9038066 L7.54278111,18.3050511 L8.74298982,18.3050511 L8.74298982,20.2451145 L8.79231346,20.2451145 C9.23622627,18.7654051 10.5186411,18.2064038 11.8503795,18.2064038 Z M21.4057148,22.6126494 C21.4057148,25.4898621 19.7780345,27.1011012 17.2460874,27.1011012 C14.7141402,27.1011012 13.0700187,25.4898621 13.0700187,22.6126494 C13.0700187,19.7189956 14.7141402,18.1077565 17.2460874,18.1077565 C19.7780345,18.1077565 21.4057148,19.7189956 21.4057148,22.6126494 Z M14.3524335,22.6126494 C14.3524335,24.7006838 15.4046713,26.0488634 17.2460874,26.0488634 C19.0875035,26.0488634 20.1397412,24.7006838 20.1397412,22.6126494 C20.1397412,20.4917327 19.0875035,19.1599943 17.2460874,19.1599943 C15.4046713,19.1599943 14.3524335,20.4917327 14.3524335,22.6126494 Z M29.2018401,26.9038066 L29.2018401,21.280911 C29.2018401,20.0807023 28.7086036,19.1764355 27.5083949,19.1764355 C25.6505376,19.1764355 24.8942417,20.6397036 24.8942417,21.9714421 L24.8942417,26.9038066 L23.6611506,26.9038066 L23.6611506,18.3050511 L24.7955944,18.3050511 L24.7955944,19.7847604 L24.8613593,19.7847604 C25.3874782,18.5845517 26.4232747,18.1077565 27.7056895,18.1077565 C29.0045455,18.1077565 29.9252536,18.8147287 30.2540779,19.9984962 C30.7637555,18.6338754 31.8981994,18.1077565 33.0984081,18.1077565 C34.9069417,18.1077565 35.9427383,19.1764355 35.9427383,21.1658225 L35.9427383,26.9038066 L34.7096472,26.9038066 L34.7096472,21.2644698 C34.7096472,19.9491726 34.1670871,19.1764355 32.9339959,19.1764355 C31.0761386,19.1764355 30.4513724,20.5081739 30.41849,21.7905887 L30.41849,26.9038066 L29.2018401,26.9038066 Z" id="from" fill="#E9EBED"></path>
                    <g id="Group-16-Copy-3" transform="translate(49.323645, 0.000000)">
                        <path d="M28.9964096,27.7272578 L22.1435003,20.4642092 L20.298497,18.4412723 L4.51417592,32.7149092 C3.16580834,33.9343659 3.113458,35.2264966 4.35906379,36.5465578 L11.211973,43.8101488 C12.4575788,45.1299389 13.7774169,45.1811902 15.1260614,43.9617335 L28.8410205,31.5591777 C30.189665,30.3397209 30.2420154,29.0473191 28.9964096,27.7272578 Z M9.59465212,26.3987903 L25.3786962,12.1248822 C26.7273407,10.9054255 26.7796911,9.61302367 25.5340853,8.29296241 L18.681176,1.02991379 C17.4355702,-0.290147468 16.1157322,-0.341669991 14.7670876,0.877786762 L1.05185162,13.2806137 C-0.296515962,14.5000705 -0.348866305,15.7922011 0.896739487,17.1122624 L7.74964874,24.3758534 L9.59465212,26.3987903 Z" id="Fill-1" fill="#DF3227"></path>
                        <path d="M130.232561,11.3820506 L129.887875,11.3820506 L129.887875,10.4366094 C129.971185,10.4253845 130.078184,10.4141596 130.232561,10.4141596 C130.767288,10.4141596 130.957065,10.6590662 130.957065,10.9037176 C130.957065,11.2488827 130.624623,11.3820506 130.232561,11.3820506 Z M130.873755,11.5601181 L130.873755,11.5379234 C131.194751,11.4488897 131.456392,11.2264329 131.456392,10.8590732 C131.456392,10.5922271 131.361105,10.4029347 131.18304,10.2809917 C131.004442,10.1582833 130.707401,10.0695047 130.256515,10.0695047 C129.899853,10.0695047 129.6619,10.1026691 129.413035,10.1360887 L129.413035,12.9287884 L129.887875,12.9287884 L129.887875,11.7272158 L130.220583,11.7272158 C130.600934,11.7272158 130.790711,11.8606388 130.86231,12.2165186 C130.921665,12.5836233 130.992731,12.8394996 131.06433,12.9287884 L131.563125,12.9287884 C131.515747,12.8394996 131.444415,12.6729121 131.373082,12.2389684 C131.313727,11.8272193 131.135662,11.6045074 130.873755,11.5601181 Z M130.398648,13.5961587 C129.210749,13.5961587 128.248026,12.6616873 128.248026,11.4713395 C128.248026,10.3031863 129.210749,9.35723487 130.386937,9.35723487 L130.398648,9.35723487 C131.58708,9.35723487 132.537293,10.3031863 132.537293,11.4825644 C132.537293,12.6616873 131.58708,13.6073836 130.398648,13.5961587 Z M130.398648,8.96793553 L130.386937,8.96793553 C128.925685,8.96793553 127.737253,10.0804745 127.737253,11.4713395 C127.737253,12.884144 128.925685,13.9857132 130.386937,13.9857132 C131.8599,13.9857132 133.024377,12.884144 133.024377,11.4713395 C133.024377,10.0804745 131.8599,8.96793553 130.398648,8.96793553 Z M127.3577,24.2582666 L127.3577,22.4594792 C127.3577,20.0611809 126.612967,18.4904627 124.229716,18.4904627 C122.591463,18.4904627 120.953211,19.6328496 119.940182,21.0033057 C119.403858,19.2328356 118.569959,18.4904627 116.90163,18.4904627 C115.322466,18.4904627 114.041675,19.4899875 112.820238,20.9461609 C112.671185,19.8040291 112.462777,18.9473664 112.343801,18.5192902 L108.858089,19.1471183 L108.858089,19.2328356 C110.824258,19.2899805 111.211796,20.0611809 111.211796,22.8306656 L111.211796,24.2582666 C111.211796,27.0277513 110.824258,27.7989517 108.858089,27.884669 L108.858089,27.9129863 L114.577999,27.9129863 L114.577999,27.884669 C112.90967,27.7989517 112.731073,27.0563237 112.731073,24.2582666 L112.731073,22.4023343 C112.731073,20.4323674 114.965271,19.2616632 116.097276,19.2616632 C117.914658,19.2616632 118.539882,20.7178366 118.539882,22.6020862 L118.539882,24.2582666 C118.539882,27.1134686 118.331474,27.7989517 116.663411,27.884669 L116.663411,27.9129863 L121.906352,27.9129863 L121.906352,27.884669 C120.208478,27.7989517 120.029614,27.1134686 120.029614,24.2582666 L120.029614,22.4023343 C120.029614,20.4035399 122.323168,19.2616632 123.425628,19.2616632 C125.24301,19.2616632 125.83869,20.7461539 125.83869,22.6020862 L125.83869,24.2582666 C125.83869,27.1134686 125.659826,27.7989517 123.991763,27.884669 L123.991763,27.9129863 L129.711407,27.9129863 L129.711407,27.884669 C127.745238,27.7989517 127.3577,27.0277513 127.3577,24.2582666 Z M105.586109,26.0284816 C104.096643,27.3132205 103.292289,27.5703723 102.577367,27.5703723 C101.65377,27.5703723 100.879227,26.8851443 100.879227,25.8284746 C100.879227,24.3439839 102.398503,23.3447142 105.586109,22.6309137 L105.586109,26.0284816 Z M108.863146,27.5129723 C108.654738,27.6558345 108.386443,27.7989517 108.088603,27.7989517 C107.34387,27.7989517 107.105385,27.1134686 107.105385,26.3996681 L107.105385,22.0882927 C107.105385,19.5471323 106.033002,18.4904627 103.3221,18.4904627 C101.415286,18.4904627 99.8366542,19.4042702 99.8366542,20.4892571 C99.8366542,20.8892711 100.164305,21.2030576 100.581653,21.2030576 C100.968659,21.2030576 101.296309,20.9175885 101.296309,20.4892571 C101.296309,19.3473804 102.54729,18.8333318 103.292289,18.8333318 C105.288269,18.8333318 105.586109,19.9754636 105.586109,22.3454446 C101.862445,22.9735278 99.2407083,24.0296872 99.2407083,26.1713438 C99.2407083,27.484655 100.283547,28.2841728 101.62396,28.2841728 C102.726154,28.2841728 103.709638,27.884669 105.556298,26.2853784 C105.764973,27.7132345 106.360652,28.227028 107.373681,28.227028 C107.879929,28.227028 108.445798,27.9987036 108.952312,27.5989447 L108.863146,27.5129723 Z M93.290032,19.0619113 C95.4648755,19.0619113 96.1201765,20.6606917 95.643473,21.9454306 L90.1024264,21.9454306 C90.6387512,20.0894982 91.8306431,19.0619113 93.290032,19.0619113 Z M94.1838179,27.7701242 C90.8769699,27.7701242 89.6557996,25.4575433 90.0430714,22.4309067 L97.2521811,22.4309067 C97.7288846,20.2895052 95.8816917,18.4904627 93.4390851,18.4904627 C90.8176148,18.4904627 88.225689,20.5749744 88.225689,23.4304315 C88.225689,26.1713438 90.3409113,28.3984625 93.4390851,28.3984625 C94.9583613,28.3984625 96.5968801,27.684662 97.6099084,26.7708545 L97.4310447,26.5711026 C96.5074482,27.2849031 95.1667694,27.7701242 94.1838179,27.7701242 Z M83.170928,19.461415 L80.3109729,18.0623865 C77.7786683,16.805965 76.557498,15.9493023 76.557498,14.2648046 C76.557498,12.665769 77.9277213,11.4381751 79.7448375,11.4381751 C83.3197148,11.4381751 84.3026664,14.1790873 84.5709618,16.4347785 L84.630583,16.4347785 L84.630583,10.7243746 L84.5709618,10.7243746 C84.3625537,11.2953129 83.975282,11.6950718 83.4687679,12.123148 C82.4261951,11.3810302 81.5025986,10.8669816 79.8342693,10.8669816 C77.0935566,10.8669816 75.1870086,12.6371966 75.1870086,14.8357429 C75.1870086,16.8631098 76.6764743,18.4904627 78.3450698,19.2899805 L81.2047587,20.689009 C83.230283,21.6885338 84.7793699,22.8878105 84.7793699,24.4008736 C84.7793699,26.4282405 82.9923305,27.8275242 80.7578658,27.8275242 C75.8127652,27.8275242 75.0677662,23.8013629 74.9487899,22.6878035 L74.9487899,28.3984625 L75.0084111,28.3984625 C75.2168192,27.8275242 75.5742803,27.3989377 76.0211733,27.0277513 C76.4385218,27.1134686 76.7363617,27.2563307 77.0339354,27.3706204 C77.3615859,27.5129723 77.6895026,27.684662 78.0469637,27.8275242 C78.7916966,28.1413107 79.6854824,28.3984625 80.7578658,28.3984625 C83.6771759,28.3984625 86.1203149,26.4851303 86.1203149,23.5444661 C86.1203149,22.0882927 85.3753159,20.546402 83.170928,19.461415 Z M64.5084233,18.9820615 C66.6832668,18.9820615 67.3385678,20.5810971 66.8618643,21.8658359 L61.3208177,21.8658359 C61.8571425,20.0096485 63.0485021,18.9820615 64.5084233,18.9820615 Z M65.4019431,27.6905296 C62.0953612,27.6905296 60.8739248,25.3776935 61.2611965,22.351057 L68.4705724,22.351057 C68.9470098,20.2099106 67.1003492,18.4108681 64.6572102,18.4108681 C62.03574,18.4108681 59.4440803,20.4953798 59.4440803,23.3505818 C59.4440803,26.091494 61.5590364,28.3188679 64.6572102,28.3188679 C66.1764865,28.3188679 67.8150052,27.6050674 68.8282997,26.6912599 L68.6494361,26.491508 C67.7258396,27.2050534 66.3851608,27.6905296 65.4019431,27.6905296 Z M56.9165667,24.1784169 L56.9165667,22.3796294 C56.9165667,20.0096485 56.0525915,18.4108681 53.5500975,18.4108681 C51.9712,18.4108681 50.6904085,19.4103928 49.3497297,20.9806009 L49.3497297,11.272608 L34.5854943,11.272608 L34.3770862,14.5561413 L34.4367074,14.5561413 L34.5258731,14.2137824 C34.972766,12.5573469 35.3898483,11.814974 38.2796141,11.814974 L40.3506527,11.814974 L40.3506527,24.1784169 C40.3506527,27.0338739 39.9335704,27.7476744 37.4906976,27.8048193 L37.4906976,27.8331366 L44.9681028,27.8331366 L44.9681028,27.8048193 C42.5252301,27.7476744 42.1081477,27.0338739 42.1081477,24.1784169 L42.1081477,11.814974 L44.1794526,11.814974 C46.717879,11.814974 47.6369506,12.3825959 47.7692352,13.6681 C47.8123541,14.0862269 47.8304534,14.5765502 47.8304534,15.1559072 L47.8304534,24.1784169 C47.8304534,26.9481567 47.4729923,27.7476744 45.4770125,27.8048193 L45.4770125,27.8331366 L51.2264671,27.8331366 L51.2264671,27.8048193 C49.5581378,27.719102 49.3497297,26.9767291 49.3497297,24.1784169 L49.3497297,22.3227397 C49.3497297,20.4953798 51.2562777,19.1818134 52.8649858,19.1818134 C54.682102,19.1818134 55.4268349,20.6094144 55.4268349,22.5224916 L55.4268349,24.1784169 C55.4268349,26.9767291 55.1886162,27.7476744 53.3118788,27.8048193 L53.3118788,27.8331366 L59.2995521,27.8331366 L59.2995521,27.8048193 C57.3035723,27.7476744 56.9165667,26.9481567 56.9165667,24.1784169 Z" id="Fill-4" fill="#F3F3F3"></path>
                    </g>
                </g>
            </g>
        </g>
    </g>
</svg>