<?xml version="1.0" encoding="UTF-8"?>
<svg width="40px" height="39px" viewBox="0 0 40 39" version="1.1" xmlns="http://www.w3.org/2000/svg" xmlns:xlink="http://www.w3.org/1999/xlink">
    <!-- Generator: Sketch 51.3 (57544) - http://www.bohemiancoding.com/sketch -->
    <title>Fill 1</title>
    <desc>Created with Sketch.</desc>
    <defs></defs>
    <g id="Page-4" stroke="none" stroke-width="1" fill="none" fill-rule="evenodd">
        <g id="Login-Split-Copy" transform="translate(-700.000000, -451.000000)" fill="#5C50CA">
            <g id="Group" transform="translate(570.000000, 421.000000)">
                <path d="M149.955598,55.4074163 C153.330613,55.4193982 156.150365,52.6437798 156.170235,49.2901323 C156.190904,45.82016 153.417982,42.9998091 149.980161,42.9940178 C146.60235,42.9883264 143.780901,45.7685378 143.76782,49.1156951 C143.754241,52.5987477 146.504497,55.3952346 149.955598,55.4074163 M142.807966,52.4422834 C141.87607,52.6445786 141.02016,52.9540125 140.189112,53.3358372 C139.382827,53.706379 138.624869,54.1534055 138.020379,54.816806 C137.351088,55.5512995 137.036062,56.3947288 137.330219,57.3852365 C137.520532,58.0260711 137.924424,58.5310104 138.432958,58.9548718 C139.196108,59.5912131 140.071589,60.0276556 140.994199,60.3748325 C143.385197,61.2744772 145.882235,61.6371308 148.414021,61.7590471 C150.844659,61.8761707 153.267708,61.7450682 155.663299,61.2768736 C157.382908,60.9407799 159.063277,60.4837684 160.592773,59.5931102 C161.229513,59.2222689 161.811536,58.7815329 162.232203,58.1605685 C162.882523,57.2006147 162.894605,56.1125539 162.199053,55.185251 C161.904397,54.7925426 161.534254,54.4353807 161.138151,54.1438199 C159.996671,53.3036857 158.679355,52.8397845 157.3221,52.4808253 C157.261491,52.4648494 157.192895,52.4788284 157.108222,52.4788284 C156.872178,52.8932041 156.636932,53.3061819 156.396994,53.7273474 C156.476374,53.7636926 156.519309,53.7894538 156.56574,53.8034328 C156.677072,53.8367825 156.790201,53.8640414 156.902233,53.894895 C158.12539,54.2303895 159.324184,54.6308861 160.366014,55.380357 C161.589771,56.2609304 161.584379,57.0794972 160.372704,57.9804398 C160.349739,57.9974143 160.313593,57.996915 160.256978,58.0113932 C159.980695,57.526324 159.548845,57.1978189 159.049298,56.9518894 C157.550057,56.2138014 155.936587,55.9295297 154.343388,55.7333253 C151.397426,57.4795944 148.502088,57.4663144 145.594069,55.7353222 C144.429424,55.8597348 143.272267,56.0763085 142.146962,56.4433555 C141.180019,56.7587803 140.234743,57.1179392 139.630254,58.0585222 C139.405393,57.8533313 139.193312,57.6898776 139.017677,57.4938729 C138.538299,56.9590786 138.508744,56.4064112 139.014781,55.8975778 C139.383925,55.5262372 139.813777,55.169275 140.284468,54.954898 C141.187508,54.5435178 142.138475,54.2370794 143.070471,53.8897028 C143.218248,53.8346857 143.371018,53.7928487 143.54885,53.736234 C143.295332,53.293501 143.065978,52.8928047 142.807966,52.4422834 M170,59.5839241 C169.925313,60.2900603 169.540992,60.8263523 168.862514,61.0824664 C166.11006,62.1212015 163.356409,63.1566416 160.603556,64.194478 C157.337477,65.4258229 154.069301,66.6520755 150.808014,67.896301 C150.230184,68.1167688 149.698985,68.1120759 149.119158,67.8924068 C143.135174,65.6246234 137.145597,63.3719172 131.157119,61.115916 C130.029418,60.6910561 129.66986,59.6360456 130.328667,58.6230717 C131.53465,56.7686654 132.752416,54.9220475 133.964789,53.0717351 C138.82327,45.6567063 143.683148,38.2425761 148.536636,30.8241525 C148.849664,30.3457732 149.242073,30.0390353 149.824795,30.0042876 C150.475515,29.9654461 150.985846,30.1886099 151.351196,30.7510626 C152.419985,32.3970827 153.500857,34.0353146 154.576536,35.6768416 C159.408057,43.0500334 164.239379,50.4233251 169.0706,57.7967166 C169.262012,58.0887766 169.475989,58.3692541 169.637147,58.6771901 C169.78742,58.9641578 169.881379,59.2805811 170,59.5839241" id="Fill-1"></path>
            </g>
        </g>
    </g>
</svg>