<?xml version="1.0" encoding="UTF-8"?>
<svg width="27px" height="27px" viewBox="0 0 27 27" version="1.1" xmlns="http://www.w3.org/2000/svg" xmlns:xlink="http://www.w3.org/1999/xlink">
    <!-- Generator: Sketch 51.2 (57519) - http://www.bohemiancoding.com/sketch -->
    <title>Combined Shape</title>
    <desc>Created with Sketch.</desc>
    <defs></defs>
    <g id="Nav-for-Ashton" stroke="none" stroke-width="1" fill="none" fill-rule="evenodd" opacity="0.25">
        <g id="Artboard" transform="translate(-274.000000, -1191.000000)" fill="#FFFFFF" fill-rule="nonzero">
            <g id="Group" transform="translate(249.000000, 217.000000)">
                <path d="M32.2550184,997.124617 C34.0177447,998.249834 36.1117503,998.90193 38.3580611,998.90193 C40.6043718,998.90193 42.6983775,998.249834 44.4611038,997.124617 L43.2732315,990.972983 L33.4428907,990.972983 L32.2550184,997.124617 Z M30.4869201,995.732336 L31.7921422,988.972983 L34.3920753,988.972983 C33.3016762,987.829299 32.6271291,986.220371 32.6271291,984.449426 C32.6271291,981.012504 35.1677591,978.185808 38.3580611,978.185808 C41.548363,978.185808 44.0889931,981.012504 44.0889931,984.449426 C44.0889931,986.220371 43.414446,987.829299 42.3240469,988.972983 L44.92398,988.972983 L46.2292021,995.732336 C48.3785591,993.665765 49.7161222,990.761019 49.7161222,987.543869 C49.7161222,981.270985 44.630945,976.185808 38.3580611,976.185808 C32.0851772,976.185808 27,981.270985 27,987.543869 C27,990.761019 28.3375631,993.665765 30.4869201,995.732336 Z M38.3580611,1000.90193 C30.9806077,1000.90193 25,994.921322 25,987.543869 C25,980.166415 30.9806077,974.185808 38.3580611,974.185808 C45.7355145,974.185808 51.7161222,980.166415 51.7161222,987.543869 C51.7161222,994.921322 45.7355145,1000.90193 38.3580611,1000.90193 Z M38.3580611,988.713045 C40.3934023,988.713045 42.0889931,986.826536 42.0889931,984.449426 C42.0889931,982.072316 40.3934023,980.185808 38.3580611,980.185808 C36.3227198,980.185808 34.6271291,982.072316 34.6271291,984.449426 C34.6271291,986.826536 36.3227198,988.713045 38.3580611,988.713045 Z" id="Combined-Shape"></path>
            </g>
        </g>
    </g>
</svg>