<?xml version="1.0" encoding="UTF-8"?>
<svg width="30px" height="30px" viewBox="0 0 30 30" version="1.1" xmlns="http://www.w3.org/2000/svg" xmlns:xlink="http://www.w3.org/1999/xlink">
    <!-- Generator: Sketch 51.2 (57519) - http://www.bohemiancoding.com/sketch -->
    <title>Combined Shape</title>
    <desc>Created with Sketch.</desc>
    <defs></defs>
    <g id="Nav-for-Ashton" stroke="none" stroke-width="1" fill="none" fill-rule="evenodd" opacity="0.25">
        <g id="Artboard" transform="translate(-272.000000, -425.000000)" fill="#FFFFFF" fill-rule="nonzero">
            <g id="Group" transform="translate(249.000000, 217.000000)">
                <path d="M45.96875,216.789062 L53,216.789062 L53,238 L23,238 L23,216.789062 L30.03125,216.789062 L30.03125,211.515625 L31.7890625,211.515625 L31.7890625,208 L44.2109375,208 L44.2109375,211.515625 L45.96875,211.515625 L45.96875,216.789062 Z M30.03125,236.242188 L30.03125,218.546875 L24.7578125,218.546875 L24.7578125,236.242188 L30.03125,236.242188 Z M33.546875,209.757812 L33.546875,211.515625 L42.453125,211.515625 L42.453125,209.757812 L33.546875,209.757812 Z M37.1210937,236.242188 L37.1210937,229.09375 L31.7890625,229.09375 L31.7890625,236.242188 L37.1210937,236.242188 Z M44.2109375,236.242188 L44.2109375,229.09375 L38.8789062,229.09375 L38.8789062,236.242188 L44.2109375,236.242188 Z M44.2109375,227.335938 L44.2109375,223.820313 L31.7890625,223.820313 L31.7890625,227.335938 L44.2109375,227.335938 Z M44.2109375,222.0625 L44.2109375,218.546875 L31.7890625,218.546875 L31.7890625,222.0625 L44.2109375,222.0625 Z M44.2109375,216.789062 L44.2109375,213.273438 L31.7890625,213.273438 L31.7890625,216.789062 L44.2109375,216.789062 Z M51.2421875,236.242188 L51.2421875,218.546875 L45.96875,218.546875 L45.96875,236.242188 L51.2421875,236.242188 Z M26.4615385,220.259615 L28.2165914,220.259615 L28.2165914,223.778846 L26.4615385,223.778846 L26.4615385,220.259615 Z M26.4615385,225.538462 L28.2165914,225.538462 L28.2165914,229.057692 L26.4615385,229.057692 L26.4615385,225.538462 Z M47.6391778,220.259615 L49.3942308,220.259615 L49.3942308,223.778846 L47.6391778,223.778846 L47.6391778,220.259615 Z M47.6391778,225.538462 L49.3942308,225.538462 L49.3942308,229.057692 L47.6391778,229.057692 L47.6391778,225.538462 Z" id="Combined-Shape"></path>
            </g>
        </g>
    </g>
</svg>