<?xml version="1.0" encoding="UTF-8"?>
<svg width="28px" height="29px" viewBox="0 0 28 29" version="1.1" xmlns="http://www.w3.org/2000/svg" xmlns:xlink="http://www.w3.org/1999/xlink">
    <!-- Generator: Sketch 51.2 (57519) - http://www.bohemiancoding.com/sketch -->
    <title>Combined Shape</title>
    <desc>Created with Sketch.</desc>
    <defs></defs>
    <g id="Nav-for-Ashton" stroke="none" stroke-width="1" fill="none" fill-rule="evenodd" opacity="0.25">
        <g id="Artboard" transform="translate(-276.000000, -360.000000)" fill="#FFFFFF" fill-rule="nonzero">
            <g id="Group" transform="translate(249.000000, 217.000000)">
                <path d="M50.8854335,145.1959 L47.7947888,149.459354 L47.7947888,143 L27,143 L27,172 L47.7947888,172 L47.7947888,158.330691 L55,148.391281 L50.8854335,145.1959 Z M46.1530993,170.300781 L28.6416895,170.300781 L28.6416895,144.699219 L46.1530993,144.699219 L46.1530993,151.724016 L43.4578281,155.442076 L30.9765551,155.442076 L30.9765551,156.291686 L30.9765551,157.141295 L42.2260137,157.141295 L40.8299757,159.067076 L30.9765551,159.067076 L30.9765551,159.916686 L30.9765551,160.766295 L40.1113535,160.766295 L40.5430631,163.898578 L44.1439449,163.366949 L46.1530993,160.59541 L46.1530993,170.300781 Z M44.2937764,160.328859 L43.2388815,161.78407 L41.9364744,161.976365 L41.7506352,160.628318 L42.8055301,159.173107 L44.2937764,160.328859 Z M45.2790638,158.969711 L43.7908722,157.813959 L47.3597958,152.890756 L48.8480421,154.046508 L45.2790638,158.969711 Z M48.3450284,151.531551 L51.2132789,147.574863 L52.7015252,148.730672 L49.8332747,152.687359 L48.3450284,151.531551 Z M39.419558,165.190893 L40.9282051,165.190893 L40.9282051,166.859785 L39.9111469,166.859785 L37.6185986,168.430769 L36.5834636,166.30282 L36.0923618,166.859785 L33.8923077,166.859785 L33.8923077,165.190893 L35.372595,165.190893 L36.9742236,163.374359 L38.2483065,165.993463 L39.419558,165.190893 Z M31.0205128,151.923077 L43.9435897,151.923077 L43.9435897,153.558974 L31.0205128,153.558974 L31.0205128,152.741026 L31.0205128,151.923077 Z M34.4666667,147.461538 L40.3538462,147.461538 L40.3538462,149.097436 L34.4666667,149.097436 L34.4666667,148.279487 L34.4666667,147.461538 Z" id="Combined-Shape"></path>
            </g>
        </g>
    </g>
</svg>