<?xml version="1.0" encoding="UTF-8"?>
<svg width="33px" height="20px" viewBox="0 0 33 20" version="1.1" xmlns="http://www.w3.org/2000/svg" xmlns:xlink="http://www.w3.org/1999/xlink">
    <!-- Generator: Sketch 51.2 (57519) - http://www.bohemiancoding.com/sketch -->
    <title>Shape</title>
    <desc>Created with Sketch.</desc>
    <defs></defs>
    <g id="Nav-for-Ashton" stroke="none" stroke-width="1" fill="none" fill-rule="evenodd" opacity="0.25">
        <g id="Artboard" transform="translate(-270.000000, -495.000000)" fill="#FFFFFF" fill-rule="nonzero">
            <g id="Group" transform="translate(249.000000, 217.000000)">
                <path d="M50.8417969,286.622629 L50.8417969,282.085677 L44.172832,282.085677 L44.172832,278 L21,278 L21,294.87312 L24.3290039,294.87312 C24.5178516,296.629169 25.9880273,298 27.7682227,298 C29.548418,298 31.0185937,296.629169 31.2074414,294.87312 L45.1183594,294.87312 C45.307207,296.629169 46.7773828,298 48.5575781,298 C50.3377734,298 51.8079492,296.629169 51.9967969,294.87312 L54,294.87312 L54,288.52518 L50.8417969,286.622629 Z M44.172832,284.047744 L48.9082031,284.047744 L48.9082031,286.199804 L44.172832,286.199804 L44.172832,284.047744 Z M29.2467773,294.87312 C29.0785547,295.542184 28.4791406,296.037933 27.7682227,296.037933 C27.0573047,296.037933 26.4585352,295.542184 26.289668,294.87312 C26.2587305,294.750164 26.2419727,294.621975 26.2419727,294.489209 C26.2419727,293.635056 26.9271094,292.940484 27.7682227,292.940484 C28.6099805,292.940484 29.2944727,293.635056 29.2944727,294.489209 C29.2944727,294.621975 29.2777148,294.750164 29.2467773,294.87312 Z M42.2392383,292.911053 L30.8581055,292.911053 C30.2883398,291.76586 29.1172266,290.978417 27.7682227,290.978417 C26.4192187,290.978417 25.2481055,291.76586 24.6783398,292.911053 L22.9335937,292.911053 L22.9335937,279.962067 L42.2392383,279.962067 L42.2392383,292.911053 Z M50.0361328,294.87312 C49.8679102,295.542184 49.2684961,296.037933 48.5575781,296.037933 C47.8466602,296.037933 47.2472461,295.542184 47.0790234,294.87312 C47.0480859,294.750164 47.0313281,294.621975 47.0313281,294.489209 C47.0313281,293.635056 47.7158203,292.940484 48.5575781,292.940484 C49.3993359,292.940484 50.0838281,293.635056 50.0838281,294.489209 C50.0838281,294.621975 50.0670703,294.750164 50.0361328,294.87312 Z M52.0664063,292.911053 L51.6474609,292.911053 C51.0776953,291.76586 49.906582,290.978417 48.5575781,290.978417 C47.2085742,290.978417 46.0374609,291.76586 45.4676953,292.911053 L44.172832,292.911053 L44.172832,288.161871 L49.609582,288.161871 L49.6100977,288.162198 L52.0664063,289.64225 L52.0664063,292.911053 Z" id="Shape"></path>
            </g>
        </g>
    </g>
</svg>