<svg width="45" height="45" viewBox="0 0 45 45" xmlns="http://www.w3.org/2000/svg"><title>Group 9</title><g fill="none" fill-rule="evenodd"><path fill="#FFF" d="M0 0h45v45H0z"/><g fill="#606E7B" fill-rule="nonzero"><path d="M22.524 34.368c-6.587 0-11.927-5.34-11.927-11.927s5.34-11.926 11.927-11.926 11.927 5.34 11.927 11.926c0 6.587-5.34 11.927-11.927 11.927zm0-1.785c5.6 0 10.141-4.54 10.141-10.142 0-5.6-4.54-10.14-10.141-10.14-5.6 0-10.141 4.54-10.141 10.14 0 5.601 4.54 10.142 10.141 10.142z"/><path d="M18.983 24.373c-.974-1.021-1.576-2.458-1.576-4.039 0-3.068 2.268-5.592 5.117-5.592 2.848 0 5.117 2.524 5.117 5.592 0 1.581-.602 3.018-1.576 4.04h2.321l1.366 7.072-1.753.338-1.086-5.625h-8.778l-1.086 5.625-1.753-.338 1.366-7.073h2.32zm3.541-.232c1.817 0 3.331-1.684 3.331-3.807 0-2.122-1.514-3.807-3.331-3.807s-3.331 1.685-3.331 3.807c0 2.123 1.514 3.807 3.331 3.807z"/></g></g></svg>